<mxfile host="app.diagrams.net" modified="2024-03-10T19:58:12.112Z" agent="Mozilla/5.0 (Macintosh; Intel Mac OS X 10_15_7) AppleWebKit/537.36 (KHTML, like Gecko) Chrome/122.0.0.0 Safari/537.36" version="24.0.4" etag="9lixriI473LuDtzZ19P6" type="github">
  <diagram name="Page-1" id="UyL3CeQKW412h0tYAmzk">
    <mxGraphModel>
      <root>
        <mxCell id="0" />
        <mxCell id="1" parent="0" />
      </root>
    </mxGraphModel>
  </diagram>
</mxfile>
